<svg width="512" height="512" viewBox="0 0 512 512" fill="none" xmlns="http://www.w3.org/2000/svg">
<g clip-path="url(#clip0_102_13)">
<g clip-path="url(#clip1_102_13)">
<path d="M256 512C192.436 512.077 131.08 488.685 83.7 446.312C36.8741 404.585 7.07418 347.06 0 284.74L57.84 256L0 227.26C7.07461 164.937 36.8777 107.41 83.708 65.684C131.127 23.3761 192.455 -0.00585938 256.004 -0.00585938C319.553 -0.00585938 380.881 23.3761 428.3 65.684C475.128 107.415 504.928 164.944 512 227.268L454.16 256L512 284.74C504.926 347.06 475.126 404.585 428.3 446.312C380.92 488.685 319.564 512.077 256 512V512Z" fill="#2149B9"/>
<path d="M213.032 354.464L255.568 282.58L297.968 354.464H337.928L276.972 255.664L336.576 158.464H297.02L255.568 229.264L214.116 158.464H174.564L234.3 255.664L173.208 354.464H213.032Z" fill="white"/>
</g>
</g>
<defs>
<clipPath id="clip0_102_13">
<rect width="512" height="512" fill="white"/>
</clipPath>
<clipPath id="clip1_102_13">
<rect width="512" height="512" fill="white"/>
</clipPath>
</defs>
</svg>
